<svg xmlns="http://www.w3.org/2000/svg" width="512" height="512" viewBox="0 0 512 512">
  <defs>
    <linearGradient id="bg" x1="0" y1="0" x2="512" y2="512">
      <stop offset="0%" stop-color="#8B5CF6"/>
      <stop offset="100%" stop-color="#3B82F6"/>
    </linearGradient>
  </defs>
  <rect width="512" height="512" rx="100" fill="url(#bg)"/>
  <path d="M160 180h80v180H160a20 20 0 01-20-20V200a20 20 0 0120-20z" fill="#fff" opacity="0.9"/>
  <path d="M272 180h80v180h-80a20 20 0 01-20-20V200a20 20 0 0120-20z" fill="#fff" opacity="0.6"/>
  <path d="M256 150l-96 50 96 50 96-50-96-50z" fill="#fff"/>
  <path d="M256 210l80-44v48c0 16-36 30-80 30s-80-14-80-30v-48l80 44z" fill="#fff"/>
  <circle cx="340" cy="180" r="12" fill="#FBBF24"/>
</svg>
